#!OML:ASF I:\golf\golf\golf 2\Subject 1\2002-09-07\Subject1.ASF
:FULLY-SPECIFIED
:DEGREES
224
root -8.88775 17.9567 5.68779 -17.1828 80.2139 -32.1829
lowerback 5.20436 0.678112 -1.61155
upperback 5.58244 0.967247 4.01442
thorax 2.75989 0.422875 5.04665
lowerneck -11.611 -0.116775 1.9882
upperneck 44.4685 4.2281 -4.89229
head 19.1554 2.07103 -1.72235
rclavicle -1.90833e-014 2.66371e-014
rhumerus -19.9028 45.1624 -99.5178
rradius 55.9969
rwrist -63.6061
rhand -41.6142 -18.4514
rfingers 7.12502
rthumb -14.5235 -47.923
lclavicle -1.90833e-014 2.66371e-014
lhumerus -16.8534 -47.0149 106.216
lradius 52.9575
lwrist 64.0145
lhand -9.20543 62.7294
lfingers 7.12502
lthumb -163.251 87.9731
rfemur -29.687 2.0803 16.3085
rtibia 26.2304
rfoot -6.72691 -2.48792
rtoes -3.47183
lfemur -27.0659 5.66814 -8.47229
ltibia 28.5149
lfoot -11.6186 0.410681
ltoes -17.8433
225
root -8.88788 17.9578 5.68535 -17.2436 80.3456 -32.2223
lowerback 5.24272 0.671575 -1.68818
upperback 5.57313 0.956904 4.05927
thorax 2.72873 0.415259 5.13715
lowerneck -11.5476 -0.13779 1.92883
upperneck 44.4506 4.21428 -4.88606
head 19.1228 2.0592 -1.71
rclavicle -1.21259e-014 2.22639e-014
rhumerus -19.9831 45.2157 -99.4847
rradius 56.0518
rwrist -63.7
rhand -41.5203 -18.2175
rfingers 7.12502
rthumb -14.4329 -47.6957
lclavicle -1.21259e-014 2.22639e-014
lhumerus -16.916 -47.0272 106.283
lradius 53.0475
lwrist 64.1743
lhand -9.4842 62.998
lfingers 7.12502
lthumb -163.52 87.682
rfemur -29.6349 2.02688 16.222
rtibia 26.2077
rfoot -6.77755 -2.50456
rtoes -2.73409
lfemur -27.058 5.58173 -8.52822
ltibia 28.4663
lfoot -11.5286 0.31647
ltoes -18.3325
226
root -8.88773 17.957 5.68016 -17.0571 80.5635 -32.0078
lowerback 5.29108 0.66538 -1.71075
upperback 5.56587 0.948528 4.02789
thorax 2.69507 0.411573 5.11634
lowerneck -11.5288 -0.18139 1.92875
upperneck 44.4486 4.14444 -4.87249
head 19.1103 2.03571 -1.71568
rclavicle -5.1684e-015 2.0276e-014
rhumerus -19.9547 45.1679 -99.4548
rradius 55.9999
rwrist -63.689
rhand -41.3555 -17.9351
rfingers 7.12502
rthumb -14.2742 -47.4245
lclavicle -5.1684e-015 2.0276e-014
lhumerus -17.0137 -47.1491 106.34
lradius 53.127
lwrist 64.2685
lhand -9.73948 63.4387
lfingers 7.12502
lthumb -163.765 87.221
rfemur -29.5723 1.81134 16.0933
rtibia 26.1898
rfoot -6.77142 -2.46139
rtoes -3.00046
lfemur -27.0766 5.4739 -8.68752
ltibia 28.427
lfoot -11.5109 0.222652
ltoes -18.2266
227
root -8.88476 17.9559 5.67571 -17.2208 80.653 -32.17
lowerback 5.24402 0.668537 -1.65744
upperback 5.59208 0.954685 4.02393
thorax 2.74863 0.415593 5.08283
lowerneck -11.5667 -0.185341 1.96953
upperneck 44.4608 4.13977 -4.89509
head 19.1307 2.03844 -1.735
rclavicle -1.64991e-014 -2.62396e-014
rhumerus -19.8863 45.209 -99.4434
rradius 55.9419
rwrist -63.5754
rhand -41.265 -17.9269
rfingers 7.12502
rthumb -14.1869 -47.4224
lclavicle -1.64991e-014 -2.62396e-014
lhumerus -16.9852 -47.1559 106.318
lradius 53.1493
lwrist 64.3158
lhand -9.96736 63.6144
lfingers 7.12502
lthumb -163.985 87.0275
rfemur -29.5487 1.55901 16.1297
rtibia 26.1898
rfoot -6.74784 -2.32531
rtoes -3.45011
lfemur -27.0805 5.52609 -8.73516
ltibia 28.3872
lfoot -11.5254 0.0698685
ltoes -18.1353
228
root -8.88259 17.957 5.67369 -17.35 80.6714 -32.3018
lowerback 5.1889 0.699679 -1.60785
upperback 5.61055 0.997545 4.01657
thorax 2.79492 0.437998 5.04672
lowerneck -11.5673 -0.179123 2.03877
upperneck 44.4673 4.13791 -4.90607
head 19.1369 2.04949 -1.75327
rclavicle -2.127e-014 4.05521e-014
rhumerus -19.8412 45.1645 -99.48
rradius 55.9011
rwrist -63.5129
rhand -41.2669 -18.1383
rfingers 7.12502
rthumb -14.1888 -47.6337
lclavicle -2.127e-014 4.05521e-014
lhumerus -16.9324 -47.1969 106.286
lradius 53.1258
lwrist 64.4277
lhand -10.213 63.4963
lfingers 7.12502
lthumb -164.221 87.1268
rfemur -29.5438 1.44393 16.1624
rtibia 26.1937
rfoot -6.75949 -2.23105
rtoes -3.31661
lfemur -27.0703 5.56765 -8.73308
ltibia 28.3572
lfoot -11.5119 -0.0591253
ltoes -17.6834
229
root -8.88118 17.9594 5.66929 -17.5198 80.7682 -32.4498
lowerback 5.20614 0.724417 -1.49031
upperback 5.60657 1.03445 3.97162
thorax 2.7791 0.461751 4.9309
lowerneck -11.5555 -0.201329 2.11592
upperneck 44.4873 4.08628 -4.90048
head 19.144 2.04575 -1.77421
rclavicle 1.37161e-014 -3.10104e-014
rhumerus -19.8772 45.0192 -99.5432
rradius 55.9173
rwrist -63.4955
rhand -41.3093 -18.2457
rfingers 7.12502
rthumb -14.2296 -47.7383
lclavicle 1.37161e-014 -3.10104e-014
lhumerus -16.9587 -47.3656 106.285
lradius 53.1236
lwrist 64.626
lhand -10.3473 63.3198
lfingers 7.12502
lthumb -164.351 87.2931
rfemur -29.4913 1.30106 16.1468
rtibia 26.1768
rfoot -6.76559 -2.1745
rtoes -3.22916
lfemur -27.0602 5.53454 -8.78126
ltibia 28.3318
lfoot -11.5056 -0.09211
ltoes -17.7855
230
root -8.87947 17.9601 5.6647 -17.7589 80.9438 -32.6641
lowerback 5.23491 0.718583 -1.37702
upperback 5.60323 1.03086 3.92701
thorax 2.76156 0.46515 4.81906
lowerneck -11.546 -0.226508 2.16587
upperneck 44.4814 4.03716 -4.90547
head 19.1348 2.03611 -1.79434
rclavicle -4.57205e-015 -8.74653e-015
rhumerus -19.9567 44.9492 -99.5984
rradius 55.9734
rwrist -63.4127
rhand -41.2528 -18.1663
rfingers 7.12502
rthumb -14.1752 -47.6627
lclavicle -4.57205e-015 -8.74653e-015
lhumerus -17.0174 -47.4592 106.298
lradius 53.1416
lwrist 64.748
lhand -10.5173 63.2588
lfingers 7.12502
lthumb -164.515 87.3414
rfemur -29.4149 1.07173 16.1292
rtibia 26.1429
rfoot -6.73605 -2.16397
rtoes -4.01281
lfemur -27.0723 5.48054 -8.86251
ltibia 28.3006
lfoot -11.5251 -0.188117
ltoes -18.0567
231
root -8.87749 17.9614 5.66304 -17.9957 81.0723 -32.8754
lowerback 5.22374 0.68633 -1.42788
upperback 5.62897 0.98716 3.97644
thorax 2.7979 0.440372 4.9021
lowerneck -11.5377 -0.211607 2.10405
upperneck 44.4408 4.08064 -4.91964
head 19.1083 2.04074 -1.78063
rclavicle 4.77083e-015 1.86858e-014
rhumerus -19.9827 45.1542 -99.5917
rradius 55.9881
rwrist -63.3706
rhand -41.1214 -17.9929
rfingers 7.12502
rthumb -14.0486 -47.4981
lclavicle 4.77083e-015 1.86858e-014
lhumerus -16.9875 -47.3375 106.292
lradius 53.1692
lwrist 64.784
lhand -10.9252 63.3507
lfingers 7.12502
lthumb -164.907 87.2195
rfemur -29.3331 0.984886 16.1007
rtibia 26.1021
rfoot -6.71509 -2.21919
rtoes -4.50622
lfemur -27.0679 5.41787 -8.89444
ltibia 28.2735
lfoot -11.5217 -0.338165
ltoes -17.8213
232
root -8.87579 17.9633 5.662 -18.3681 81.1317 -33.2563
lowerback 5.1757 0.672443 -1.48574
upperback 5.65534 0.967337 4.06047
thorax 2.85296 0.426365 5.02546
lowerneck -11.5661 -0.193914 2.02504
upperneck 44.4127 4.13236 -4.92959
head 19.1008 2.04559 -1.7604
rclavicle -2.00773e-014 -1.03368e-014
rhumerus -19.9718 45.3492 -99.5741
rradius 55.9412
rwrist -63.3624
rhand -40.9094 -17.881
rfingers 7.12502
rthumb -13.8443 -47.4002
lclavicle -2.00773e-014 -1.03368e-014
lhumerus -16.9225 -47.2453 106.243
lradius 53.2367
lwrist 64.8887
lhand -11.2434 63.3712
lfingers 7.12502
lthumb -165.214 87.1763
rfemur -29.2882 1.02392 16.0903
rtibia 26.0585
rfoot -6.71232 -2.28617
rtoes -4.2273
lfemur -27.0826 5.45766 -8.88651
ltibia 28.2473
lfoot -11.5037 -0.505994
ltoes -17.5982
233
root -8.87577 17.9642 5.66085 -18.9611 81.1818 -33.8893
lowerback 5.13934 0.683546 -1.41403
upperback 5.65928 0.984467 4.09891
thorax 2.87605 0.436765 5.02524
lowerneck -11.6101 -0.185475 2.01756
upperneck 44.4109 4.14251 -4.91559
head 19.1121 2.04999 -1.74979
rclavicle -1.19271e-014 -2.38542e-015
rhumerus -19.9653 45.344 -99.5893
rradius 55.9104
rwrist -63.4364
rhand -40.8731 -18.0484
rfingers 7.12502
rthumb -13.8093 -47.5701
lclavicle -1.19271e-014 -2.38542e-015
lhumerus -16.9001 -47.2281 106.189
lradius 53.2826
lwrist 64.9446
lhand -11.223 63.0929
lfingers 7.12502
lthumb -165.194 87.456
rfemur -29.2832 1.05105 16.1316
rtibia 26.0171
rfoot -6.71681 -2.37945
rtoes -4.02916
lfemur -27.1293 5.49675 -8.84142
ltibia 28.2077
lfoot -11.4732 -0.621025
ltoes -17.5955
